<svg id="Слой_1" data-name="Слой 1" xmlns="http://www.w3.org/2000/svg" viewBox="0 0 790.02 674.77"><defs><style>.cls-1{fill:#313f32;opacity:0.64;}.cls-2,.cls-3{fill:#16872b;}.cls-2,.cls-3,.cls-4{stroke:#176025;}.cls-10,.cls-2,.cls-3,.cls-4,.cls-6,.cls-7,.cls-8,.cls-9{stroke-miterlimit:10;}.cls-3,.cls-4{stroke-width:4px;}.cls-10,.cls-4,.cls-7{fill:none;}.cls-5{fill:#113816;}.cls-10,.cls-6,.cls-7,.cls-8{stroke:#000;}.cls-8{fill:#e2202a;}.cls-9{fill:#fff;stroke:#fff;}.cls-10{stroke-width:0.25px;}.cls-11{font-size:144.49px;font-family:MyriadPro-Regular, Myriad Pro;}</style></defs><title>simple ftp2</title><path class="cls-1" d="M155,731c246.82,4,427.2-1.79,449.88-8.84a170.38,170.38,0,0,0,41.42-19.74c1.19-.83,6.2-4.32,12-9.29,55.61-47.72,105-137,105-137,10.81-19.57,16.22-29.36,21.07-40.78,11.39-26.77,34.84-81.91,23.35-144.42-14-76.06-71.88-120.44-88.59-132.37" transform="translate(-20.71 -58.65)"/><path class="cls-2" d="M716.9,237C779.61,279.15,758.09,532.51,608,649.69,569,680.2,455,695.33,227.53,728.34c-24.95,3.62-82,11.46-90.73-8.7-3.13-7.23,1-15.69,2.85-19.41,134.24-267.34,204.26-399.54,335.09-435.9,28.57-7.93,72.62-15.17,87.89-17.67C653,231.81,698.23,224.39,716.9,237Z" transform="translate(-20.71 -58.65)"/><path class="cls-3" d="M136.81,719.11c72-16.64,192.17-54.4,313.58-146.4,158-119.77,231.83-266,262.3-337.74" transform="translate(-20.71 -58.65)"/><path class="cls-4" d="M534.77,355.55A217.65,217.65,0,0,0,542,393.31c15.57,54.38,49.1,90.54,70.72,109.86" transform="translate(-20.71 -58.65)"/><path class="cls-4" d="M452.71,441a151.38,151.38,0,0,0,1.8,32.77c9.82,59.24,52.81,96.43,71.08,110.42" transform="translate(-20.71 -58.65)"/><path class="cls-5" d="M435.41,540.63c5.73,2.73,20.88,7.74,53-10.46,6.47-3.66,100.07-58.1,91-125-.81-5.93-3.34-24.51-17.81-34.84-17.11-12.2-40.17-5.2-48.39-2.71-37.93,11.52-57,46.39-70.84,71.62-7.87,14.38-37.36,68.24-17.8,92.9A31.58,31.58,0,0,0,435.41,540.63Z" transform="translate(-20.71 -58.65)"/><path class="cls-6" d="M414.16,456.51a191.73,191.73,0,0,0-11,28.72,67,67,0,0,0-1.88,8.09c-.49,2.94-2.25,13.56,0,20.84,4,12.86,20.88,19.65,33.28,19.88,8.89.17,16.43-3,20.22-4.66,4.38-1.87,7.77-4.07,14.55-8.46a144.88,144.88,0,0,0,15.79-11.66c3.19-2.76,5.75-5.25,7.6-7.13" transform="translate(-20.71 -58.65)"/><line class="cls-7" x1="524.28" y1="362.6" x2="546.81" y2="369.3"/><line class="cls-7" x1="546.76" y1="371.67" x2="545.71" y2="368.65"/><line class="cls-7" x1="471.98" y1="453.41" x2="479.32" y2="476.09"/><path class="cls-8" d="M485.07,365.13c-16.17,1.29-27.38,8.37-34.77,13.16-30.19,19.56-54.26,59.11-46.49,93a56,56,0,0,0,1.88,6.44c2.92,1.46,7.41,3.58,13,5.76,17.49,6.78,23.37,5.35,32.2,9.64,16.48,8,13.75,21.95,24.75,25.87,16.69,5.95,42.91-18.77,56.29-42,1.64-2.84,33.83-60.32,4.85-93.37C518.62,362.89,487.83,364.9,485.07,365.13Z" transform="translate(-20.71 -58.65)"/><path class="cls-6" d="M408.69,510.25a58,58,0,0,1-8.62,12.34c-4.27,4.66-7.8,6.94-7.48,7.43s6-1.79,10.58-6.19a24.21,24.21,0,0,0,5.93-8.78,22.26,22.26,0,0,0,1.07-4" transform="translate(-20.71 -58.65)"/><path class="cls-6" d="M430.14,525a29.55,29.55,0,0,0-8.62,12.34c-1.95,5.47-2,11-1.34,11.19s.73-4.59,4.44-10c2.24-3.25,4.35-4.67,5.93-8.78a20.18,20.18,0,0,0,1.07-4" transform="translate(-20.71 -58.65)"/><path class="cls-9" d="M438.93,533.86a2.22,2.22,0,0,1-.94-1.22,17.5,17.5,0,0,1-.78-9c.39-1.77,2.16-9.69,7.56-11.31,7.75-2.33,17.38,10,15.61,14.1-.63,1.48-3.53,2.54-9.32,4.66-1.1.4-.62.19-2.88,1a51.31,51.31,0,0,1-7.94,2A2,2,0,0,1,438.93,533.86Z" transform="translate(-20.71 -58.65)"/><path class="cls-9" d="M401.84,516.4a2.15,2.15,0,0,0,1.47.4,16.62,16.62,0,0,0,8.43-2.78c1.45-1.06,7.92-5.82,7.28-11.51-.93-8.17-15.84-12.35-18.87-9.1-1.09,1.17-.91,4.3-.56,10.56.07,1.18.07.65.24,3.07a55.3,55.3,0,0,0,1.34,8.2A2.12,2.12,0,0,0,401.84,516.4Z" transform="translate(-20.71 -58.65)"/><path class="cls-6" d="M518.43,427.61c-8.12,1.25-17.11,8.37-15.94,15.59,1.08,6.63,10.34,11,17.79,10,9.61-1.2,18.07-11.39,15.75-18.38C534.1,429,525.06,426.58,518.43,427.61Z" transform="translate(-20.71 -58.65)"/><path class="cls-6" d="M458.43,457.25c-6.4-2.86-15.38,3-19.6,9.55-4,6.2-5.42,15.6-2.56,21.64a36.5,36.5,0,0,1,6.47,2.4A31.84,31.84,0,0,1,448,494a22.2,22.2,0,0,0,13.86-8.94C468.22,475.89,466.12,460.69,458.43,457.25Z" transform="translate(-20.71 -58.65)"/><path class="cls-6" d="M425.06,427.49c-3.45.63-7.27,4.19-6.77,7.8.46,3.31,4.39,5.48,7.56,5,4.09-.6,7.69-5.69,6.7-9.19C431.73,428.2,427.89,427,425.06,427.49Z" transform="translate(-20.71 -58.65)"/><path class="cls-6" d="M481.6,401.26c1.74-4.47-.14-12-5.28-14.69-4.73-2.46-10.52,0-12.26,4.05-2.24,5.17,1.82,13.82,7.18,15.85C475.71,408.17,480.18,404.92,481.6,401.26Z" transform="translate(-20.71 -58.65)"/><path class="cls-10" d="M434.76,494c12.05-7.36,41.31-27.53,58.42-66.43a148.91,148.91,0,0,0,12.46-61.09" transform="translate(-20.71 -58.65)"/><line class="cls-7" x1="477.37" y1="477.39" x2="479.22" y2="474.8"/><line class="cls-7" x1="514.54" y1="410.29" x2="530.33" y2="427.97"/><line class="cls-7" x1="529.07" y1="429.96" x2="529.72" y2="426.83"/><path class="cls-4" d="M613,279.68A234.89,234.89,0,0,0,621,315.05c16.37,52.66,48,88.67,70.51,109.55" transform="translate(-20.71 -58.65)"/><path class="cls-4" d="M356.84,502.52a157,157,0,0,0,2.42,32.69c10.6,58.55,52,95.5,71,110.31" transform="translate(-20.71 -58.65)"/><path class="cls-4" d="M278.52,607.74a115.47,115.47,0,0,0,2.94,19.07c9,37.23,34.62,61,49.19,72.38" transform="translate(-20.71 -58.65)"/><text class="cls-11" transform="translate(0 120.94) scale(0.86 1)">Simple FTP</text></svg>